<?xml version="1.0" encoding="UTF-8" standalone="no"?>
<!DOCTYPE svg PUBLIC "-//W3C//DTD SVG 1.1//EN"
 "http://www.w3.org/Graphics/SVG/1.1/DTD/svg11.dtd">
<!-- Generated by graphviz version 2.42.4 (0) -->
<!-- Title: P03 Pages: 1 -->
<svg width="1490pt" height="188pt" viewBox="0.00 0.00 1490.00 188.00" xmlns="http://www.w3.org/2000/svg" xmlns:xlink="http://www.w3.org/1999/xlink">
<g id="graph0" class="graph" transform="scale(1 1) rotate(0) translate(4 184)">
<title>P03</title>
<polygon fill="white" stroke="transparent" points="-4,4 -4,-184 1486,-184 1486,4 -4,4"/>
<text text-anchor="middle" x="741" y="-160" font-family="Times,serif" font-size="20.00">P03 · Trellis functional/structural characterization</text>
<g id="node1" class="node"><title>corpus</title><path fill="none" stroke="black" d="M177,-94C177,-94 12,-94 12,-94 6,-94 0,-88 0,-82 0,-82 0,-68 0,-68 0,-62 6,-56 12,-56 12,-56 177,-56 177,-56 183,-56 189,-62 189,-68 189,-68 189,-82 189,-82 189,-88 183,-94 177,-94"/><text text-anchor="middle" x="94.5" y="-78.8" font-family="Helvetica,sans-Serif" font-size="14.00">Pinned public corpus</text><text text-anchor="middle" x="94.5" y="-63.8" font-family="Helvetica,sans-Serif" font-size="14.00">1 logical observable only</text></g>
<g id="node2" class="node"><title>surface</title><path fill="none" stroke="black" d="M368,-150C368,-150 257,-150 257,-150 251,-150 245,-144 245,-138 245,-138 245,-124 245,-124 245,-118 251,-112 257,-112 257,-112 368,-112 368,-112 374,-112 380,-118 380,-124 380,-124 380,-138 380,-138 380,-144 374,-150 368,-150"/><text text-anchor="middle" x="312.5" y="-134.8" font-family="Helvetica,sans-Serif" font-size="14.00">Surface code</text><text text-anchor="middle" x="312.5" y="-119.8" font-family="Helvetica,sans-Serif" font-size="14.00">d=3,5 · p=0.001</text></g>
<g id="edge1" class="edge"><title>corpus-&gt;surface</title><path fill="none" stroke="black" d="M168.93,-94.04C190.25,-99.56 213.57,-105.61 235.07,-111.19"/><polygon fill="black" stroke="black" points="234.25,-114.59 244.81,-113.71 236,-107.81 234.25,-114.59"/></g>
<g id="node3" class="node"><title>midout</title><path fill="none" stroke="black" d="M370.5,-94C370.5,-94 254.5,-94 254.5,-94 248.5,-94 242.5,-88 242.5,-82 242.5,-82 242.5,-68 242.5,-68 242.5,-62 248.5,-56 254.5,-56 254.5,-56 370.5,-56 370.5,-56 376.5,-56 382.5,-62 382.5,-68 382.5,-68 382.5,-82 382.5,-82 382.5,-88 376.5,-94 370.5,-94"/><text text-anchor="middle" x="312.5" y="-78.8" font-family="Helvetica,sans-Serif" font-size="14.00">Midout color code</text><text text-anchor="middle" x="312.5" y="-63.8" font-family="Helvetica,sans-Serif" font-size="14.00">d=3,5 · p=0.001</text></g>
<g id="edge2" class="edge"><title>corpus-&gt;midout</title><path fill="none" stroke="black" d="M189.3,-75C203.59,-75 218.22,-75 232.16,-75"/><polygon fill="black" stroke="black" points="232.18,-78.5 242.18,-75 232.18,-71.5 232.18,-78.5"/></g>
<g id="node4" class="node"><title>superdense</title><path fill="none" stroke="black" d="M388,-38C388,-38 237,-38 237,-38 231,-38 225,-32 225,-26 225,-26 225,-12 225,-12 225,-6 231,0 237,0 237,0 388,0 388,0 394,0 400,-6 400,-12 400,-12 400,-26 400,-26 400,-32 394,-38 388,-38"/><text text-anchor="middle" x="312.5" y="-22.8" font-family="Helvetica,sans-Serif" font-size="14.00">Superdense color code</text><text text-anchor="middle" x="312.5" y="-7.8" font-family="Helvetica,sans-Serif" font-size="14.00">d=3,5 · p=0.001</text></g>
<g id="edge3" class="edge"><title>corpus-&gt;superdense</title><path fill="none" stroke="black" d="M168.93,-55.96C187.97,-51.03 208.62,-45.67 228.13,-40.62"/><polygon fill="black" stroke="black" points="229.11,-43.98 237.91,-38.08 227.35,-37.2 229.11,-43.98"/></g>
<g id="node5" class="node"><title>modes</title><path fill="none" stroke="black" d="M597,-101.5C597,-101.5 448,-101.5 448,-101.5 442,-101.5 436,-95.5 436,-89.5 436,-89.5 436,-60.5 436,-60.5 436,-54.5 442,-48.5 448,-48.5 448,-48.5 597,-48.5 597,-48.5 603,-48.5 609,-54.5 609,-60.5 609,-60.5 609,-89.5 609,-89.5 609,-95.5 603,-101.5 597,-101.5"/><text text-anchor="middle" x="522.5" y="-86.3" font-family="Helvetica,sans-Serif" font-size="14.00">Same sampled shots</text><text text-anchor="middle" x="522.5" y="-71.3" font-family="Helvetica,sans-Serif" font-size="14.00">3 ranking modes</text><text text-anchor="middle" x="522.5" y="-56.3" font-family="Helvetica,sans-Serif" font-size="14.00">beam=64 · threads=2</text></g>
<g id="edge4" class="edge"><title>surface-&gt;modes</title><path fill="none" stroke="black" d="M380.17,-113.05C394.69,-109.14 410.34,-104.93 425.74,-100.78"/><polygon fill="black" stroke="black" points="427.06,-104.05 435.81,-98.07 425.24,-97.29 427.06,-104.05"/></g>
<g id="edge5" class="edge"><title>midout-&gt;modes</title><path fill="none" stroke="black" d="M382.76,-75C396.59,-75 411.34,-75 425.87,-75"/><polygon fill="black" stroke="black" points="425.89,-78.5 435.89,-75 425.89,-71.5 425.89,-78.5"/></g>
<g id="edge6" class="edge"><title>superdense-&gt;modes</title><path fill="none" stroke="black" d="M384.21,-38.04C397.7,-41.67 412.03,-45.53 426.14,-49.33"/><polygon fill="black" stroke="black" points="425.3,-52.73 435.87,-51.95 427.12,-45.97 425.3,-52.73"/></g>
<g id="node6" class="node"><title>trellis</title><path fill="none" stroke="black" d="M783,-94C783,-94 657,-94 657,-94 651,-94 645,-88 645,-82 645,-82 645,-68 645,-68 645,-62 651,-56 657,-56 657,-56 783,-56 783,-56 789,-56 795,-62 795,-68 795,-68 795,-82 795,-82 795,-88 789,-94 783,-94"/><text text-anchor="middle" x="720" y="-78.8" font-family="Helvetica,sans-Serif" font-size="14.00">P02b instrumented</text><text text-anchor="middle" x="720" y="-63.8" font-family="Helvetica,sans-Serif" font-size="14.00">Tesseract Trellis</text></g>
<g id="edge7" class="edge"><title>modes-&gt;trellis</title><path fill="none" stroke="black" d="M609.25,-75C617.71,-75 626.29,-75 634.74,-75"/><polygon fill="black" stroke="black" points="634.95,-78.5 644.95,-75 634.95,-71.5 634.95,-78.5"/></g>
<g id="node7" class="node"><title>jsonl</title><path fill="none" stroke="black" d="M969,-94C969,-94 843,-94 843,-94 837,-94 831,-88 831,-82 831,-82 831,-68 831,-68 831,-62 837,-56 843,-56 843,-56 969,-56 969,-56 975,-56 981,-62 981,-68 981,-68 981,-82 981,-82 981,-88 975,-94 969,-94"/><text text-anchor="middle" x="906" y="-78.8" font-family="Helvetica,sans-Serif" font-size="14.00">Ordered JSONL</text><text text-anchor="middle" x="906" y="-63.8" font-family="Helvetica,sans-Serif" font-size="14.00">per shot / per layer</text></g>
<g id="edge8" class="edge"><title>trellis-&gt;jsonl</title><path fill="none" stroke="black" d="M795.04,-75C803.51,-75 812.19,-75 820.78,-75"/><polygon fill="black" stroke="black" points="820.81,-78.5 830.81,-75 820.81,-71.5 820.81,-78.5"/></g>
<g id="node8" class="node"><title>structural</title><path fill="none" stroke="black" d="M1203,-133.5C1203,-133.5 1039,-133.5 1039,-133.5 1033,-133.5 1027,-127.5 1027,-121.5 1027,-121.5 1027,-92.5 1027,-92.5 1027,-86.5 1033,-80.5 1039,-80.5 1039,-80.5 1203,-80.5 1203,-80.5 1209,-80.5 1215,-86.5 1215,-92.5 1215,-92.5 1215,-121.5 1215,-121.5 1215,-127.5 1209,-133.5 1203,-133.5"/><text text-anchor="middle" x="1121" y="-118.3" font-family="Helvetica,sans-Serif" font-size="14.00">Structural metrics only</text><text text-anchor="middle" x="1121" y="-103.3" font-family="Helvetica,sans-Serif" font-size="14.00">frontier · beam · buckets</text><text text-anchor="middle" x="1121" y="-88.3" font-family="Helvetica,sans-Serif" font-size="14.00">collapse · kept states</text></g>
<g id="edge9" class="edge"><title>jsonl-&gt;structural</title><path fill="none" stroke="black" d="M981.2,-86.15C992.74,-87.88 1004.83,-89.7 1016.87,-91.51"/><polygon fill="black" stroke="black" points="1016.55,-95 1026.95,-93.02 1017.59,-88.07 1016.55,-95"/></g>
<g id="node9" class="node"><title>timing</title><polygon fill="none" stroke="black" points="1219,-62 1017,-62 1017,-24 1225,-24 1225,-56 1219,-62"/><polyline fill="none" stroke="black" points="1219,-62 1219,-56 "/><polyline fill="none" stroke="black" points="1225,-56 1219,-56 "/><text text-anchor="middle" x="1121" y="-46.8" font-family="Helvetica,sans-Serif" font-size="14.00">GitHub timing preserved</text><text text-anchor="middle" x="1121" y="-31.8" font-family="Helvetica,sans-Serif" font-size="14.00">but benchmark_valid=false</text></g>
<g id="edge11" class="edge"><title>jsonl-&gt;timing</title><path fill="none" stroke="black" stroke-dasharray="5,2" d="M981.2,-63.85C989.48,-62.61 998.05,-61.32 1006.69,-60.02"/><polygon fill="black" stroke="black" points="1007.47,-63.45 1016.83,-58.5 1006.43,-56.52 1007.47,-63.45"/></g>
<g id="node10" class="node"><title>next</title><path fill="none" stroke="black" d="M1470,-126C1470,-126 1273,-126 1273,-126 1267,-126 1261,-120 1261,-114 1261,-114 1261,-100 1261,-100 1261,-94 1267,-88 1273,-88 1273,-88 1470,-88 1470,-88 1476,-88 1482,-94 1482,-100 1482,-100 1482,-114 1482,-114 1482,-120 1476,-126 1470,-126"/><text text-anchor="middle" x="1371.5" y="-110.8" font-family="Helvetica,sans-Serif" font-size="14.00">P04 controlled-hardware</text><text text-anchor="middle" x="1371.5" y="-95.8" font-family="Helvetica,sans-Serif" font-size="14.00">performance characterization</text></g>
<g id="edge10" class="edge"><title>structural-&gt;next</title><path fill="none" stroke="black" d="M1215.24,-107C1226.86,-107 1238.87,-107 1250.82,-107"/><polygon fill="black" stroke="black" points="1250.83,-110.5 1260.83,-107 1250.83,-103.5 1250.83,-110.5"/></g>
</g>
</svg>
